<?xml version="1.0" encoding="UTF-8" standalone="no"?>
<!DOCTYPE svg PUBLIC "-//W3C//DTD SVG 1.1//EN" "http://www.w3.org/Graphics/SVG/1.1/DTD/svg11.dtd">
<svg width="100%" height="100%" viewBox="0 0 100 100" version="1.1" xmlns="http://www.w3.org/2000/svg" xmlns:xlink="http://www.w3.org/1999/xlink" xml:space="preserve" xmlns:serif="http://www.serif.com/" style="fill-rule:evenodd;clip-rule:evenodd;stroke-linejoin:round;stroke-miterlimit:2;">
    <g transform="matrix(119.416,0,0,119.416,16.3247,71.9725)">
        <path d="M0.349,-0.06C0.328,-0.037 0.306,-0.018 0.282,-0.005C0.258,0.009 0.233,0.016 0.207,0.016C0.181,0.016 0.157,0.012 0.135,0.003C0.113,-0.006 0.094,-0.018 0.077,-0.033C0.06,-0.048 0.047,-0.067 0.038,-0.088C0.029,-0.109 0.024,-0.133 0.024,-0.158C0.024,-0.195 0.029,-0.227 0.039,-0.255C0.048,-0.283 0.062,-0.307 0.079,-0.326C0.096,-0.345 0.115,-0.359 0.138,-0.369C0.161,-0.379 0.185,-0.384 0.212,-0.384C0.233,-0.384 0.252,-0.381 0.267,-0.376C0.282,-0.37 0.294,-0.361 0.305,-0.35C0.315,-0.339 0.323,-0.325 0.33,-0.309C0.336,-0.292 0.341,-0.273 0.346,-0.251C0.349,-0.234 0.353,-0.218 0.356,-0.204C0.359,-0.189 0.362,-0.176 0.365,-0.165C0.38,-0.201 0.392,-0.237 0.399,-0.272C0.406,-0.307 0.409,-0.337 0.409,-0.363L0.493,-0.363C0.49,-0.345 0.485,-0.325 0.479,-0.304C0.473,-0.283 0.466,-0.261 0.457,-0.239C0.448,-0.217 0.437,-0.195 0.426,-0.173C0.414,-0.15 0.401,-0.129 0.387,-0.109C0.391,-0.102 0.395,-0.094 0.4,-0.086C0.404,-0.077 0.409,-0.07 0.416,-0.063C0.422,-0.056 0.429,-0.051 0.437,-0.047C0.445,-0.042 0.454,-0.04 0.465,-0.04C0.478,-0.04 0.49,-0.044 0.501,-0.052C0.511,-0.059 0.521,-0.067 0.53,-0.074L0.54,-0.063C0.533,-0.056 0.526,-0.048 0.517,-0.039C0.507,-0.029 0.498,-0.021 0.488,-0.013C0.478,-0.005 0.468,0.002 0.458,0.008C0.447,0.013 0.437,0.016 0.427,0.016C0.414,0.016 0.401,0.011 0.39,-0.001C0.379,-0.012 0.369,-0.024 0.361,-0.039L0.349,-0.06ZM0.207,-0.354C0.19,-0.354 0.176,-0.349 0.164,-0.34C0.152,-0.33 0.142,-0.317 0.135,-0.3C0.127,-0.283 0.121,-0.264 0.118,-0.242C0.114,-0.219 0.112,-0.195 0.112,-0.17C0.112,-0.123 0.121,-0.085 0.139,-0.057C0.157,-0.028 0.183,-0.014 0.218,-0.014C0.239,-0.014 0.26,-0.022 0.279,-0.039C0.298,-0.056 0.316,-0.077 0.332,-0.102C0.327,-0.12 0.322,-0.14 0.318,-0.163C0.313,-0.186 0.308,-0.211 0.302,-0.239C0.293,-0.283 0.28,-0.313 0.263,-0.33C0.246,-0.346 0.228,-0.354 0.207,-0.354Z" style="fill:white;fill-rule:nonzero;"/>
    </g>
</svg>
