<?xml version="1.0" encoding="UTF-8" standalone="no"?>
<!DOCTYPE svg PUBLIC "-//W3C//DTD SVG 1.1//EN" "http://www.w3.org/Graphics/SVG/1.1/DTD/svg11.dtd">
<svg width="100%" height="100%" viewBox="0 0 100 100" version="1.1" xmlns="http://www.w3.org/2000/svg" xmlns:xlink="http://www.w3.org/1999/xlink" xml:space="preserve" xmlns:serif="http://www.serif.com/" style="fill-rule:evenodd;clip-rule:evenodd;stroke-linejoin:round;stroke-miterlimit:2;">
    <g transform="matrix(105.233,0,0,97.1961,20.9141,72.4523)">
        <path d="M0.283,0.012C0.258,0.012 0.232,0.007 0.206,-0.005C0.18,-0.016 0.157,-0.028 0.138,-0.041L0.138,0.25L0.06,0.25L0.06,-0.477C0.06,-0.503 0.065,-0.53 0.075,-0.558C0.084,-0.585 0.098,-0.611 0.116,-0.634C0.134,-0.657 0.156,-0.675 0.182,-0.69C0.207,-0.705 0.236,-0.712 0.267,-0.712C0.284,-0.712 0.302,-0.71 0.319,-0.706C0.335,-0.701 0.351,-0.694 0.365,-0.683C0.378,-0.672 0.389,-0.658 0.398,-0.641C0.406,-0.623 0.41,-0.601 0.41,-0.575C0.41,-0.559 0.406,-0.543 0.399,-0.527C0.392,-0.51 0.382,-0.494 0.369,-0.478C0.356,-0.462 0.342,-0.447 0.326,-0.432C0.31,-0.417 0.293,-0.404 0.275,-0.392C0.309,-0.372 0.34,-0.353 0.367,-0.335C0.394,-0.316 0.418,-0.297 0.437,-0.278C0.456,-0.259 0.47,-0.238 0.481,-0.217C0.491,-0.195 0.496,-0.171 0.496,-0.144C0.496,-0.094 0.478,-0.056 0.443,-0.029C0.408,-0.002 0.354,0.012 0.283,0.012ZM0.138,-0.117C0.155,-0.09 0.178,-0.067 0.207,-0.048C0.236,-0.028 0.27,-0.018 0.31,-0.018C0.335,-0.018 0.355,-0.021 0.371,-0.027C0.386,-0.032 0.399,-0.04 0.408,-0.05C0.417,-0.059 0.423,-0.071 0.427,-0.084C0.43,-0.097 0.432,-0.11 0.432,-0.125C0.432,-0.144 0.426,-0.164 0.414,-0.183C0.402,-0.202 0.386,-0.22 0.366,-0.238C0.346,-0.255 0.323,-0.272 0.298,-0.288C0.273,-0.304 0.247,-0.319 0.22,-0.333L0.22,-0.381C0.256,-0.403 0.284,-0.43 0.305,-0.461C0.326,-0.492 0.336,-0.524 0.336,-0.558C0.336,-0.594 0.329,-0.624 0.314,-0.647C0.299,-0.67 0.276,-0.682 0.244,-0.682C0.223,-0.682 0.205,-0.676 0.192,-0.664C0.178,-0.651 0.167,-0.636 0.159,-0.618C0.151,-0.6 0.146,-0.58 0.143,-0.56C0.14,-0.539 0.138,-0.519 0.138,-0.501L0.138,-0.117Z" style="fill:white;fill-rule:nonzero;"/>
    </g>
</svg>
