<?xml version="1.0" encoding="UTF-8" standalone="no"?>
<!DOCTYPE svg PUBLIC "-//W3C//DTD SVG 1.1//EN" "http://www.w3.org/Graphics/SVG/1.1/DTD/svg11.dtd">
<svg width="100%" height="100%" viewBox="0 0 100 100" version="1.1" xmlns="http://www.w3.org/2000/svg" xmlns:xlink="http://www.w3.org/1999/xlink" xml:space="preserve" xmlns:serif="http://www.serif.com/" style="fill-rule:evenodd;clip-rule:evenodd;stroke-linejoin:round;stroke-miterlimit:2;">
    <g transform="matrix(105.692,0,0,105.692,15.2801,84.2487)">
        <path d="M0.037,-0L0.284,-0.583C0.286,-0.588 0.288,-0.592 0.29,-0.596C0.291,-0.6 0.292,-0.604 0.292,-0.607C0.292,-0.61 0.291,-0.615 0.289,-0.622C0.286,-0.629 0.283,-0.635 0.28,-0.64C0.297,-0.643 0.312,-0.648 0.325,-0.653C0.338,-0.658 0.352,-0.664 0.367,-0.67L0.62,-0L0.037,-0ZM0.308,-0.572L0.103,-0.054C0.104,-0.049 0.107,-0.045 0.112,-0.042C0.117,-0.039 0.126,-0.036 0.14,-0.034C0.154,-0.031 0.174,-0.029 0.201,-0.028C0.227,-0.027 0.262,-0.026 0.306,-0.026L0.358,-0.026C0.387,-0.026 0.41,-0.027 0.427,-0.028C0.444,-0.029 0.458,-0.031 0.469,-0.034C0.479,-0.036 0.487,-0.039 0.492,-0.042C0.497,-0.045 0.501,-0.049 0.504,-0.053L0.308,-0.572Z" style="fill:white;fill-rule:nonzero;"/>
    </g>
</svg>
