<?xml version="1.0" encoding="UTF-8" standalone="no"?>
<!DOCTYPE svg PUBLIC "-//W3C//DTD SVG 1.1//EN" "http://www.w3.org/Graphics/SVG/1.1/DTD/svg11.dtd">
<svg width="100%" height="100%" viewBox="0 0 100 100" version="1.1" xmlns="http://www.w3.org/2000/svg" xmlns:xlink="http://www.w3.org/1999/xlink" xml:space="preserve" xmlns:serif="http://www.serif.com/" style="fill-rule:evenodd;clip-rule:evenodd;stroke-linejoin:round;stroke-miterlimit:2;">
    <g transform="matrix(128.521,0,0,128.521,9.6803,92.9554)">
        <path d="M0.335,-0.004L0.295,-0.004C0.294,-0.065 0.285,-0.119 0.266,-0.168C0.247,-0.217 0.215,-0.238 0.169,-0.231C0.123,-0.225 0.097,-0.203 0.091,-0.166C0.072,-0.203 0.063,-0.232 0.063,-0.253C0.063,-0.27 0.065,-0.285 0.07,-0.299C0.075,-0.314 0.081,-0.325 0.09,-0.333C0.108,-0.351 0.128,-0.359 0.149,-0.359C0.174,-0.359 0.197,-0.35 0.217,-0.331C0.236,-0.313 0.254,-0.284 0.271,-0.245C0.282,-0.219 0.291,-0.2 0.298,-0.187L0.298,-0.378C0.275,-0.382 0.257,-0.388 0.244,-0.394C0.232,-0.401 0.219,-0.41 0.208,-0.423C0.183,-0.452 0.171,-0.483 0.171,-0.519C0.171,-0.56 0.185,-0.594 0.213,-0.622C0.241,-0.65 0.275,-0.664 0.315,-0.664C0.355,-0.664 0.389,-0.65 0.417,-0.622C0.444,-0.594 0.458,-0.56 0.458,-0.521C0.458,-0.485 0.448,-0.454 0.426,-0.427C0.414,-0.413 0.402,-0.403 0.389,-0.396C0.376,-0.39 0.357,-0.384 0.333,-0.378L0.333,-0.199C0.341,-0.216 0.351,-0.238 0.364,-0.265C0.381,-0.3 0.398,-0.325 0.416,-0.34C0.434,-0.356 0.455,-0.363 0.478,-0.363C0.502,-0.363 0.523,-0.353 0.54,-0.333C0.556,-0.313 0.565,-0.289 0.565,-0.26C0.565,-0.233 0.543,-0.201 0.499,-0.165C0.516,-0.201 0.501,-0.222 0.454,-0.228C0.407,-0.234 0.375,-0.213 0.359,-0.165C0.343,-0.116 0.335,-0.063 0.335,-0.004ZM0.315,-0.627C0.285,-0.627 0.26,-0.617 0.239,-0.596C0.218,-0.575 0.208,-0.549 0.208,-0.52C0.208,-0.49 0.218,-0.465 0.238,-0.445C0.258,-0.424 0.284,-0.414 0.314,-0.414C0.344,-0.414 0.369,-0.424 0.39,-0.445C0.411,-0.465 0.421,-0.49 0.421,-0.519C0.421,-0.549 0.411,-0.575 0.39,-0.596C0.37,-0.617 0.345,-0.627 0.315,-0.627Z" style="fill:white;fill-rule:nonzero;"/>
    </g>
</svg>
