<?xml version="1.0" encoding="UTF-8" standalone="no"?>
<!DOCTYPE svg PUBLIC "-//W3C//DTD SVG 1.1//EN" "http://www.w3.org/Graphics/SVG/1.1/DTD/svg11.dtd">
<svg width="100%" height="100%" viewBox="0 0 100 100" version="1.1" xmlns="http://www.w3.org/2000/svg" xmlns:xlink="http://www.w3.org/1999/xlink" xml:space="preserve" xmlns:serif="http://www.serif.com/" style="fill-rule:evenodd;clip-rule:evenodd;stroke-linejoin:round;stroke-miterlimit:2;">
    <g transform="matrix(105.987,0,0,98.3161,27.1696,56.8354)">
        <path d="M-0.018,-0.372C0.005,-0.371 0.029,-0.371 0.052,-0.37C0.075,-0.369 0.098,-0.368 0.122,-0.368C0.137,-0.347 0.152,-0.321 0.167,-0.292C0.182,-0.262 0.195,-0.233 0.208,-0.204C0.221,-0.175 0.231,-0.148 0.24,-0.123C0.249,-0.098 0.254,-0.08 0.255,-0.068C0.268,-0.085 0.28,-0.103 0.293,-0.122C0.306,-0.141 0.317,-0.16 0.328,-0.18C0.338,-0.2 0.346,-0.221 0.353,-0.242C0.359,-0.263 0.362,-0.284 0.362,-0.306C0.362,-0.321 0.36,-0.335 0.357,-0.348C0.354,-0.361 0.347,-0.371 0.338,-0.378L0.452,-0.389C0.452,-0.357 0.446,-0.326 0.434,-0.295C0.422,-0.264 0.407,-0.233 0.389,-0.203C0.37,-0.173 0.35,-0.144 0.329,-0.115C0.307,-0.086 0.286,-0.059 0.267,-0.032C0.275,0.002 0.28,0.033 0.282,0.06C0.284,0.087 0.285,0.111 0.285,0.133C0.285,0.169 0.282,0.198 0.276,0.219C0.27,0.24 0.254,0.25 0.229,0.25C0.216,0.25 0.206,0.247 0.199,0.242C0.191,0.236 0.185,0.228 0.181,0.217C0.177,0.206 0.174,0.194 0.173,0.18C0.172,0.166 0.171,0.15 0.171,0.133C0.171,0.108 0.173,0.084 0.178,0.059C0.182,0.034 0.19,0.008 0.201,-0.017C0.193,-0.038 0.184,-0.061 0.174,-0.084C0.164,-0.107 0.154,-0.131 0.143,-0.154C0.132,-0.177 0.121,-0.2 0.11,-0.222C0.099,-0.244 0.088,-0.265 0.077,-0.284C0.066,-0.303 0.054,-0.319 0.039,-0.334C0.024,-0.348 0.005,-0.357 -0.018,-0.36L-0.018,-0.372Z" style="fill:white;fill-rule:nonzero;"/>
    </g>
</svg>
