<?xml version="1.0" encoding="UTF-8" standalone="no"?>
<!DOCTYPE svg PUBLIC "-//W3C//DTD SVG 1.1//EN" "http://www.w3.org/Graphics/SVG/1.1/DTD/svg11.dtd">
<svg width="100%" height="100%" viewBox="0 0 100 100" version="1.1" xmlns="http://www.w3.org/2000/svg" xmlns:xlink="http://www.w3.org/1999/xlink" xml:space="preserve" xmlns:serif="http://www.serif.com/" style="fill-rule:evenodd;clip-rule:evenodd;stroke-linejoin:round;stroke-miterlimit:2;">
    <g transform="matrix(85.2493,0,0,85.2493,14.4511,78.388)">
        <path d="M0.069,-0.422C0.069,-0.466 0.077,-0.504 0.093,-0.535C0.108,-0.566 0.131,-0.592 0.161,-0.612C0.19,-0.632 0.227,-0.647 0.27,-0.656C0.313,-0.665 0.362,-0.67 0.417,-0.67C0.472,-0.67 0.521,-0.665 0.564,-0.656C0.607,-0.647 0.644,-0.632 0.674,-0.612C0.703,-0.592 0.726,-0.566 0.742,-0.535C0.757,-0.504 0.765,-0.466 0.765,-0.422C0.765,-0.383 0.76,-0.347 0.749,-0.315C0.737,-0.282 0.723,-0.252 0.704,-0.224C0.685,-0.195 0.662,-0.169 0.635,-0.144C0.608,-0.119 0.58,-0.095 0.549,-0.071C0.577,-0.071 0.602,-0.073 0.624,-0.078C0.645,-0.082 0.665,-0.089 0.683,-0.099C0.7,-0.109 0.716,-0.123 0.732,-0.14C0.747,-0.157 0.761,-0.178 0.775,-0.204L0.787,-0.198L0.73,0.004C0.719,0.003 0.707,0.002 0.695,0.001C0.683,0 0.671,-0 0.66,-0L0.496,-0L0.488,-0.058C0.545,-0.1 0.588,-0.15 0.617,-0.208C0.645,-0.266 0.659,-0.334 0.659,-0.413C0.659,-0.484 0.64,-0.538 0.601,-0.577C0.562,-0.615 0.501,-0.634 0.417,-0.634C0.333,-0.634 0.272,-0.615 0.233,-0.577C0.194,-0.538 0.175,-0.484 0.175,-0.413C0.175,-0.334 0.189,-0.267 0.216,-0.21C0.243,-0.153 0.287,-0.103 0.346,-0.058L0.338,-0L0.174,-0C0.163,-0 0.151,0 0.139,0.001C0.127,0.002 0.115,0.003 0.104,0.004L0.047,-0.198L0.059,-0.204C0.073,-0.178 0.088,-0.157 0.103,-0.14C0.118,-0.123 0.134,-0.109 0.152,-0.099C0.169,-0.089 0.189,-0.082 0.211,-0.078C0.232,-0.073 0.257,-0.071 0.285,-0.071C0.254,-0.095 0.225,-0.119 0.199,-0.144C0.172,-0.169 0.15,-0.195 0.131,-0.224C0.112,-0.252 0.097,-0.282 0.086,-0.315C0.075,-0.347 0.069,-0.383 0.069,-0.422Z" style="fill:white;fill-rule:nonzero;"/>
    </g>
</svg>
