<?xml version="1.0" encoding="UTF-8" standalone="no"?>
<!DOCTYPE svg PUBLIC "-//W3C//DTD SVG 1.1//EN" "http://www.w3.org/Graphics/SVG/1.1/DTD/svg11.dtd">
<svg width="100%" height="100%" viewBox="0 0 90 90" version="1.1" xmlns="http://www.w3.org/2000/svg" xmlns:xlink="http://www.w3.org/1999/xlink" xml:space="preserve" xmlns:serif="http://www.serif.com/" style="fill-rule:evenodd;clip-rule:evenodd;stroke-linejoin:round;stroke-miterlimit:2;">
    <path d="M22.201,46.512L22.395,46.207L34.102,27.894C34.273,27.626 34.675,27.654 34.804,27.945C36.76,32.328 38.448,37.779 37.657,41.172C37.319,42.568 36.395,44.459 35.355,46.207C35.22,46.461 35.073,46.711 34.915,46.951C34.841,47.062 34.717,47.127 34.582,47.127L22.543,47.127C22.22,47.127 22.03,46.776 22.201,46.512Z" style="fill:white;fill-rule:nonzero;"/>
    <path d="M74.38,49.915L74.38,52.814C74.38,52.98 74.278,53.128 74.13,53.193C73.224,53.581 70.122,55.005 68.832,56.799C65.54,61.381 63.025,67.932 57.403,67.932L33.949,67.932C25.636,67.932 18.9,61.173 18.9,52.832L18.9,52.564C18.9,52.342 19.08,52.162 19.302,52.162L32.377,52.162C32.636,52.162 32.826,52.402 32.802,52.657C32.71,53.507 32.867,54.376 33.269,55.167C34.046,56.743 35.655,57.728 37.393,57.728L43.866,57.728L43.866,52.675L37.467,52.675C37.139,52.675 36.945,52.296 37.135,52.028C37.204,51.921 37.282,51.81 37.366,51.686C37.971,50.826 38.836,49.49 39.696,47.968C40.283,46.942 40.852,45.846 41.309,44.746C41.402,44.547 41.476,44.344 41.55,44.145C41.675,43.794 41.804,43.465 41.897,43.137C41.989,42.86 42.063,42.568 42.137,42.296C42.354,41.362 42.447,40.372 42.447,39.346C42.447,38.944 42.428,38.523 42.391,38.121C42.373,37.682 42.317,37.242 42.262,36.803C42.225,36.415 42.155,36.031 42.081,35.629C41.989,35.042 41.859,34.459 41.712,33.872L41.661,33.65C41.55,33.248 41.457,32.864 41.328,32.462C40.963,31.2 40.542,29.97 40.098,28.819C39.936,28.361 39.751,27.922 39.566,27.483C39.294,26.821 39.016,26.22 38.762,25.652C38.632,25.393 38.521,25.157 38.411,24.917C38.286,24.644 38.156,24.371 38.027,24.112C37.934,23.913 37.828,23.728 37.754,23.543L36.963,22.082C36.852,21.884 37.037,21.648 37.255,21.708L42.202,23.049L42.216,23.049C42.225,23.049 42.229,23.053 42.234,23.053L42.886,23.234L43.603,23.437L43.866,23.511L43.866,20.571C43.866,19.151 45.003,18 46.409,18C47.112,18 47.75,18.287 48.207,18.754C48.665,19.221 48.952,19.859 48.952,20.571L48.952,24.935L49.479,25.083C49.52,25.097 49.562,25.115 49.599,25.143C49.728,25.24 49.913,25.384 50.149,25.559C50.334,25.707 50.533,25.887 50.773,26.072C51.25,26.456 51.818,26.951 52.442,27.519C52.609,27.663 52.771,27.811 52.919,27.959C53.723,28.708 54.625,29.586 55.484,30.557C55.725,30.83 55.961,31.107 56.201,31.398C56.442,31.694 56.696,31.986 56.918,32.277C57.209,32.665 57.523,33.067 57.796,33.488C57.926,33.687 58.074,33.89 58.198,34.089C58.55,34.621 58.859,35.171 59.155,35.721C59.28,35.975 59.41,36.253 59.521,36.526C59.849,37.261 60.108,38.01 60.274,38.759C60.325,38.921 60.362,39.096 60.381,39.254L60.381,39.29C60.436,39.512 60.455,39.748 60.473,39.989C60.547,40.756 60.51,41.524 60.344,42.296C60.274,42.624 60.182,42.934 60.071,43.262C59.96,43.576 59.849,43.905 59.706,44.214C59.428,44.857 59.1,45.5 58.712,46.101C58.587,46.323 58.439,46.558 58.291,46.78C58.129,47.016 57.963,47.238 57.815,47.455C57.611,47.733 57.394,48.024 57.172,48.283C56.973,48.556 56.77,48.828 56.548,49.069C56.238,49.434 55.942,49.781 55.632,50.114C55.448,50.331 55.249,50.553 55.045,50.752C54.846,50.974 54.643,51.172 54.458,51.357C54.148,51.667 53.889,51.908 53.672,52.106L53.164,52.573C53.09,52.638 52.993,52.675 52.891,52.675L48.952,52.675L48.952,57.728L53.908,57.728C55.018,57.728 56.072,57.335 56.922,56.614C57.214,56.36 58.485,55.259 59.988,53.6C60.038,53.544 60.103,53.503 60.177,53.484L73.867,49.527C74.121,49.453 74.38,49.647 74.38,49.915Z" style="fill:white;fill-rule:nonzero;"/>
</svg>
