<?xml version="1.0" encoding="UTF-8" standalone="no"?>
<!DOCTYPE svg PUBLIC "-//W3C//DTD SVG 1.1//EN" "http://www.w3.org/Graphics/SVG/1.1/DTD/svg11.dtd">
<svg width="100%" height="100%" viewBox="0 0 100 100" version="1.1" xmlns="http://www.w3.org/2000/svg" xmlns:xlink="http://www.w3.org/1999/xlink" xml:space="preserve" xmlns:serif="http://www.serif.com/" style="fill-rule:evenodd;clip-rule:evenodd;stroke-linejoin:round;stroke-miterlimit:2;">
    <g transform="matrix(108.959,0,0,108.959,20.6901,66.7796)">
        <path d="M0.308,-0.558L0.306,-0.381C0.37,-0.378 0.421,-0.36 0.458,-0.325C0.495,-0.29 0.514,-0.243 0.514,-0.184C0.514,-0.154 0.509,-0.127 0.499,-0.103C0.489,-0.079 0.475,-0.058 0.456,-0.041C0.437,-0.024 0.415,-0.01 0.39,-0.001C0.364,0.008 0.335,0.013 0.304,0.014L0.302,0.25L0.232,0.25L0.23,0.013C0.199,0.012 0.17,0.007 0.145,-0.003C0.12,-0.012 0.098,-0.026 0.08,-0.043C0.062,-0.06 0.048,-0.08 0.039,-0.104C0.029,-0.128 0.024,-0.155 0.024,-0.184C0.024,-0.213 0.029,-0.239 0.039,-0.263C0.048,-0.286 0.062,-0.307 0.08,-0.324C0.097,-0.341 0.119,-0.354 0.144,-0.364C0.169,-0.374 0.196,-0.38 0.227,-0.381L0.226,-0.558L0.308,-0.558ZM0.426,-0.172C0.426,-0.191 0.424,-0.21 0.419,-0.23C0.413,-0.25 0.406,-0.269 0.396,-0.286C0.386,-0.303 0.374,-0.317 0.359,-0.329C0.343,-0.341 0.326,-0.349 0.306,-0.352L0.304,-0.015C0.326,-0.016 0.345,-0.022 0.361,-0.032C0.376,-0.041 0.389,-0.053 0.399,-0.068C0.408,-0.083 0.415,-0.099 0.42,-0.117C0.424,-0.135 0.426,-0.153 0.426,-0.172ZM0.112,-0.196C0.112,-0.177 0.114,-0.157 0.119,-0.138C0.124,-0.118 0.131,-0.099 0.141,-0.083C0.15,-0.066 0.162,-0.051 0.177,-0.039C0.192,-0.027 0.209,-0.019 0.23,-0.015L0.227,-0.352C0.206,-0.351 0.189,-0.345 0.174,-0.336C0.159,-0.327 0.148,-0.315 0.139,-0.3C0.13,-0.285 0.123,-0.269 0.119,-0.251C0.114,-0.233 0.112,-0.215 0.112,-0.196Z" style="fill:white;fill-rule:nonzero;"/>
    </g>
</svg>
