<?xml version="1.0" encoding="UTF-8" standalone="no"?>
<!DOCTYPE svg PUBLIC "-//W3C//DTD SVG 1.1//EN" "http://www.w3.org/Graphics/SVG/1.1/DTD/svg11.dtd">
<svg width="100%" height="100%" viewBox="0 0 100 100" version="1.1" xmlns="http://www.w3.org/2000/svg" xmlns:xlink="http://www.w3.org/1999/xlink" xml:space="preserve" xmlns:serif="http://www.serif.com/" style="fill-rule:evenodd;clip-rule:evenodd;stroke-linejoin:round;stroke-miterlimit:2;">
    <g transform="matrix(108.959,0,0,108.959,19.9283,66.7796)">
        <path d="M0.502,-0.389C0.504,-0.384 0.506,-0.378 0.508,-0.371C0.509,-0.364 0.511,-0.355 0.512,-0.345C0.513,-0.334 0.514,-0.322 0.515,-0.307C0.516,-0.292 0.516,-0.274 0.516,-0.253C0.516,-0.231 0.513,-0.206 0.508,-0.177C0.503,-0.148 0.493,-0.12 0.479,-0.094C0.465,-0.067 0.446,-0.044 0.422,-0.024C0.397,-0.003 0.366,0.009 0.327,0.014L0.325,0.25L0.255,0.25L0.253,0.016C0.231,0.015 0.209,0.012 0.187,0.007C0.164,0.002 0.144,-0.007 0.126,-0.018C0.108,-0.029 0.093,-0.044 0.082,-0.062C0.07,-0.08 0.064,-0.102 0.064,-0.128C0.064,-0.152 0.065,-0.173 0.066,-0.191C0.067,-0.209 0.067,-0.227 0.067,-0.245C0.067,-0.266 0.065,-0.285 0.061,-0.3C0.056,-0.315 0.047,-0.329 0.033,-0.34C0.02,-0.349 0.003,-0.356 -0.018,-0.36L-0.018,-0.372C0.005,-0.371 0.029,-0.371 0.052,-0.37C0.075,-0.369 0.098,-0.368 0.122,-0.368C0.133,-0.357 0.141,-0.342 0.147,-0.324C0.152,-0.305 0.154,-0.284 0.154,-0.263C0.154,-0.254 0.154,-0.245 0.154,-0.238C0.153,-0.23 0.153,-0.222 0.153,-0.213C0.152,-0.204 0.152,-0.195 0.152,-0.185C0.151,-0.175 0.151,-0.163 0.151,-0.149C0.151,-0.131 0.153,-0.114 0.156,-0.099C0.159,-0.083 0.164,-0.069 0.171,-0.057C0.178,-0.045 0.189,-0.035 0.202,-0.028C0.215,-0.02 0.232,-0.015 0.253,-0.014L0.249,-0.558L0.331,-0.558L0.327,-0.014C0.348,-0.017 0.366,-0.026 0.379,-0.041C0.392,-0.055 0.403,-0.072 0.41,-0.093C0.417,-0.114 0.422,-0.136 0.425,-0.162C0.427,-0.187 0.428,-0.211 0.428,-0.236C0.428,-0.249 0.428,-0.263 0.427,-0.277C0.426,-0.291 0.425,-0.304 0.424,-0.317C0.422,-0.33 0.419,-0.341 0.416,-0.352C0.412,-0.363 0.407,-0.371 0.401,-0.378L0.502,-0.389Z" style="fill:white;fill-rule:nonzero;"/>
    </g>
</svg>
